# This file uses centimeters as units for non-parametric coordinates.

mtllib soccerball.mtl
g default
v 0.000000 1.000000 0.000000
v 0.395248 0.918574 0.000000
v -0.222786 0.918574 -0.326477
v -0.144097 0.918574 0.368045
v 0.567710 0.755723 -0.326477
v 0.495428 0.786825 0.368045
v -0.589668 0.755723 -0.284910
v -0.050324 0.755723 -0.652955
v 0.162095 0.786825 0.595509
v -0.510979 0.755723 0.409613
v 0.840353 0.461122 -0.284910
v 0.344925 0.674298 -0.652955
v 0.768071 0.492224 0.409613
v -0.643952 0.492224 -0.585696
v -0.733765 0.674298 0.083135
v -0.310619 0.492224 -0.813161
v 0.101404 0.492224 0.864542
v -0.571670 0.461122 0.678644
v 0.786069 0.197624 -0.585696
v 0.940533 0.329373 0.083135
v 0.479878 0.329373 -0.813161
v 0.707379 0.197624 0.678644
v -0.842332 0.147301 -0.518439
v -0.932145 0.329373 0.150394
v -0.175666 0.147301 -0.973367
v 0.374046 0.197624 0.906110
v -0.265479 0.329373 0.906110
v -0.831965 0.197624 0.518439
v 0.831965 -0.197624 -0.518439
v 0.986425 -0.065875 0.150394
v 0.219582 0.065875 -0.973367
v 0.842332 -0.147301 0.518439
v -0.707379 -0.197624 -0.678644
v -0.986425 0.065875 -0.150394
v -0.374046 -0.197624 -0.906110
v 0.175666 -0.147301 0.973367
v -0.219582 -0.065875 0.973367
v -0.786069 -0.197624 0.585696
v 0.571670 -0.461122 -0.678644
v 0.932145 -0.329373 -0.150394
v 0.265479 -0.329373 -0.906110
v 0.643952 -0.492224 0.585696
v -0.768071 -0.492224 -0.409613
v -0.940533 -0.329373 -0.083135
v -0.101404 -0.492224 -0.864542
v 0.310619 -0.492224 0.813161
v -0.479878 -0.329373 0.813161
v -0.840353 -0.461122 0.284910
v 0.510979 -0.755723 -0.409613
v 0.733765 -0.674298 -0.083135
v 0.589668 -0.755723 0.284910
v -0.495428 -0.786825 -0.368045
v -0.162095 -0.786825 -0.595509
v 0.050324 -0.755723 0.652955
v -0.344925 -0.674298 0.652955
v -0.567710 -0.755723 0.326477
v 0.144097 -0.918574 -0.368045
v 0.222786 -0.918574 0.326477
v -0.395248 -0.918574 -0.000000
v 0.000000 -1.000000 -0.000000
vt 0.223955 0.597204
vt 0.288471 0.597204
vt 0.320729 0.653077
vt 0.288471 0.708950
vt 0.106739 0.585629
vt 0.191697 0.653077
vt 0.229469 0.517839
vt 0.293986 0.517839
vt 0.326244 0.573712
vt 0.192642 0.657668
vt 0.128126 0.657668
vt 0.197211 0.573712
vt 0.528024 0.577668
vt 0.592540 0.577668
vt 0.624798 0.633541
vt 0.592540 0.689414
vt 0.543897 0.625921
vt 0.495766 0.633541
vt 0.534759 0.599646
vt 0.599275 0.599646
vt 0.631533 0.655519
vt 0.599275 0.711392
vt 0.534759 0.711392
vt 0.502501 0.655519
vt 0.674583 0.668022
vt 0.739100 0.668022
vt 0.771358 0.723895
vt 0.739100 0.779768
vt 0.731970 0.577082
vt 0.642325 0.723895
vt 0.772579 0.620744
vt 0.740321 0.676617
vt 0.731970 0.688827
vt 0.699712 0.632954
vt 0.709677 0.466898
vt 0.648115 0.668070
vt 0.557958 0.720573
vt 0.525700 0.664700
vt 0.516129 0.466898
vt 0.454567 0.625335
vt 0.419355 0.405554
vt 0.125802 0.664700
vt 0.061286 0.664700
vt 0.502777 0.248045
vt 0.438261 0.248045
vt 0.191106 0.581672
vt 0.126590 0.581672
vt 0.101658 0.260255
vt 0.037142 0.260255
vt 0.074481 0.641501
vt 0.193548 0.578643
vt 0.129032 0.578643
vt 0.125802 0.776445
vt 0.322581 0.578643
vt 0.551341 0.681207
vt 0.516129 0.578643
vt 0.744889 0.723942
vt 0.680373 0.723942
vt 0.967742 0.466898
vt 0.869353 0.676617
vt 0.967742 0.578643
vt 0.903226 0.578643
vt 1.000000 0.634516
vt 0.967742 0.690388
vt 0.903226 0.690388
vt 0.870968 0.634516
vt 0.806452 0.634516
vt 0.774194 0.690388
vt 0.709677 0.690388
vt 0.677419 0.634516
vt 0.612903 0.634516
vt 0.580645 0.690388
vt 0.516129 0.690388
vt 0.483871 0.634516
vt 0.419355 0.634516
vt 0.387097 0.690388
vt 0.322581 0.690388
vt 0.290323 0.634516
vt 0.225806 0.634516
vt 0.661192 0.238618
vt 0.596676 0.238618
vt 0.096774 0.634516
vt 0.121595 0.321614
vt 0.069400 0.359535
vt 0.017205 0.321614
vt 0.522713 0.309404
vt 0.470519 0.347325
vt 0.418324 0.309404
vt 0.503808 0.466913
vt 0.451613 0.504835
vt 0.399418 0.466913
vt 0.696135 0.465692
vt 0.643940 0.503614
vt 0.591746 0.465692
vt 0.872589 0.341150
vt 0.820395 0.379071
vt 0.768200 0.341150
vt 0.681128 0.299976
vt 0.628934 0.337898
vt 0.576739 0.299976
vt 0.109096 0.405539
vt 0.161290 0.367618
vt 0.213485 0.405539
vt 0.302644 0.405539
vt 0.354839 0.367618
vt 0.407033 0.405539
vt 0.496192 0.405539
vt 0.548387 0.367618
vt 0.600582 0.405539
vt 0.689741 0.405539
vt 0.741935 0.367618
vt 0.794130 0.405539
vt 0.883289 0.405539
vt 0.935484 0.367618
vt 0.987679 0.405539
vt 0.205870 0.237922
vt 0.258065 0.200000
vt 0.310259 0.237922
vt 0.772579 0.732489
vt 0.796487 0.688827
vt 0.852653 0.279791
vt 0.837095 0.732489
vt 0.774194 0.578643
vt 0.106739 0.697374
vt 0.777148 0.668070
vt 0.788137 0.279791
vt 0.903226 0.466898
vt 0.828745 0.632954
vt 0.129032 0.690388
vt 0.126590 0.693417
vt 0.193548 0.690388
vt 0.709677 0.578643
vt 0.774194 0.466898
vt 0.744889 0.612197
vt 0.837095 0.620744
vt 0.094332 0.637545
vt 0.171255 0.697374
vt 0.796487 0.577082
vt 0.223955 0.708950
vt 0.654732 0.664700
vt 0.680373 0.612197
vt 0.674583 0.779768
vt 0.580645 0.578643
vt 0.622474 0.720573
vt 0.676198 0.404333
vt 0.129032 0.466898
vt 0.203513 0.641501
vt 0.191106 0.693417
vt 0.128126 0.769413
vt 0.223364 0.637545
vt 0.061286 0.776445
vt 0.583599 0.625335
vt 0.611682 0.404333
vt 0.622474 0.608828
vt 0.171255 0.585629
vt 0.095868 0.713540
vt 0.193548 0.466898
vt 0.387097 0.578643
vt 0.486825 0.681207
vt 0.557958 0.608828
vt 0.608413 0.737667
vt 0.483871 0.405554
vt 0.580645 0.466898
vt 0.551341 0.569462
vt 0.229469 0.629585
vt 0.029028 0.720573
vt 0.192642 0.769413
vt 0.322581 0.466898
vt 0.224901 0.713540
vt 0.543897 0.737667
vt 0.158061 0.720573
vt 0.640671 0.681794
vt 0.486825 0.569462
vt 0.293986 0.629585
vt 0.511639 0.681794
vt 0.387097 0.466898
vt 0.528024 0.689414
vt 0.608413 0.625921
vn 0.078408 0.990278 0.114901
vn 0.455280 0.884664 -0.100450
vn -0.216468 0.923317 -0.317219
vn 0.563781 0.762577 -0.317217
vn 0.333593 0.678446 -0.654543
vn -0.038277 0.755055 -0.654544
vn -0.259519 0.884664 0.387324
vn -0.595540 0.755055 -0.274270
vn -0.719587 0.693839 0.027955
vn -0.500925 0.762576 0.409331
vn 0.284465 0.747491 0.600280
vn 0.427836 0.832619 0.351712
vn 0.761545 0.502493 0.409330
vn 0.939738 0.334226 0.072005
vn 0.864510 0.445937 -0.231867
vn -0.293353 0.444899 -0.846173
vn -0.700899 0.530413 -0.476868
vn -0.563633 0.458187 0.687301
vn -0.275554 0.334232 0.901310
vn -0.013836 0.475090 0.879829
vn 0.712374 0.158624 -0.683639
vn 0.473031 0.322060 -0.820073
vn 0.483201 0.201108 0.852099
vn 0.698837 0.198104 0.687300
vn -0.735009 0.162732 -0.658240
vn -0.960378 0.116524 -0.253173
vn -0.947630 0.226131 0.225527
vn 0.261555 0.106708 -0.959272
vn -0.180248 0.158281 -0.970803
vn -0.832576 0.185934 0.521772
vn 0.998283 0.019749 0.055144
vn 0.923539 -0.383083 0.017959
vn 0.884287 -0.214755 -0.414629
vn 0.821037 -0.201396 0.534171
vn -0.385221 -0.198105 -0.901310
vn -0.762965 -0.193552 -0.616784
vn -0.261555 -0.106708 0.959272
vn 0.143642 -0.071668 0.987031
vn -0.789395 -0.185934 0.585051
vn -0.473031 -0.322060 0.820073
vn 0.487541 -0.428716 -0.760596
vn 0.195564 -0.294857 -0.935315
vn 0.293352 -0.444899 0.846173
vn 0.651628 -0.482802 0.585051
vn -0.734676 -0.542308 -0.407619
vn -0.971645 -0.228926 0.059145
vn -0.813617 -0.563510 0.143121
vn 0.034451 -0.589772 -0.806835
vn 0.642693 -0.756324 -0.122146
vn 0.577670 -0.705875 -0.409923
vn 0.635612 -0.681194 0.363280
vn -0.284465 -0.747491 -0.600280
vn -0.505029 -0.779668 -0.370220
vn -0.288374 -0.693840 0.659869
vn 0.132477 -0.757290 0.639501
vn -0.592312 -0.705876 0.388466
vn 0.201505 -0.903496 -0.378274
vn 0.158168 -0.959823 0.231783
vn -0.401521 -0.915795 0.010053
vn 0.006860 -0.999926 0.010053
s 1
g pSolid1
usemtl lambert2SG
f 1/177/1 2/18/2 3/16/3
f 5/13/4 12/14/5 2/18/2
f 2/18/2 12/14/5 3/16/3
f 12/14/5 8/15/6 3/16/3
f 1/17/1 3/178/3 4/175/7
f 7/172/8 15/161/9 3/178/3
f 3/178/3 15/161/9 4/175/7
f 15/161/9 10/170/10 4/175/7
f 4/176/7 9/168/11 1/106/1
f 9/168/11 6/104/12 1/106/1
f 6/104/12 2/105/2 1/106/1
f 6/174/12 13/165/13 2/9/2
f 20/12/14 11/7/15 13/165/13
f 5/8/4 2/9/2 11/7/15
f 13/165/13 11/7/15 2/9/2
f 8/108/6 16/109/16 3/107/3
f 16/109/16 14/163/17 3/107/3
f 14/163/17 7/39/8 3/107/3
f 10/171/10 18/53/18 4/42/7
f 27/151/19 17/166/20 18/53/18
f 18/53/18 17/166/20 4/42/7
f 17/166/20 9/43/11 4/42/7
f 5/7/4 11/116/15 12/8/5
f 11/116/15 19/117/21 12/8/5
f 19/117/21 21/118/22 12/8/5
f 6/10/12 9/169/11 13/11/13
f 17/167/20 26/149/23 9/169/11
f 22/156/24 13/11/13 26/149/23
f 9/169/11 26/149/23 13/11/13
f 7/173/8 14/164/17 15/40/9
f 23/152/25 34/55/26 14/164/17
f 14/164/17 34/55/26 15/40/9
f 34/55/26 24/159/27 15/40/9
f 8/24/6 12/19/5 16/23/16
f 21/20/22 31/21/28 12/19/5
f 25/22/29 16/23/16 31/21/28
f 12/19/5 31/21/28 16/23/16
f 10/41/10 15/162/9 18/91/18
f 15/162/9 24/89/27 18/91/18
f 24/89/27 28/90/30 18/91/18
f 20/3/14 30/4/31 11/2/15
f 40/139/32 29/6/33 30/4/31
f 19/1/21 11/2/15 29/6/33
f 30/4/31 29/6/33 11/2/15
f 22/157/24 32/146/34 13/103/13
f 32/146/34 30/101/31 13/103/13
f 30/101/31 20/102/14 13/103/13
f 14/38/17 16/160/16 23/37/25
f 25/154/29 35/140/35 16/160/16
f 16/160/16 35/140/35 23/37/25
f 35/140/35 33/144/36 23/37/25
f 27/86/19 37/87/37 17/44/20
f 37/87/37 36/88/38 17/44/20
f 36/88/38 26/45/23 17/44/20
f 28/75/30 38/76/39 18/158/18
f 47/77/40 37/78/37 38/76/39
f 27/54/19 18/158/18 37/78/37
f 38/76/39 37/78/37 18/158/18
f 29/27/33 39/28/41 19/26/21
f 41/142/42 31/30/28 39/28/41
f 39/28/41 31/30/28 19/26/21
f 31/30/28 21/25/22 19/26/21
f 22/46/24 26/150/23 32/47/34
f 36/148/38 46/130/43 26/150/23
f 42/136/44 32/47/34 46/130/43
f 26/150/23 46/130/43 32/47/34
f 23/153/25 33/145/36 34/94/26
f 33/145/36 43/92/45 34/94/26
f 43/92/45 44/93/46 34/94/26
f 34/143/26 44/71/46 24/56/27
f 48/72/47 38/73/39 44/71/46
f 44/71/46 38/73/39 24/56/27
f 38/73/39 28/74/30 24/56/27
f 25/110/29 31/111/28 35/35/35
f 31/111/28 41/112/42 35/35/35
f 41/112/42 45/133/48 35/35/35
f 40/115/32 50/59/49 29/114/33
f 50/59/49 49/127/50 29/114/33
f 49/127/50 39/113/41 29/114/33
f 30/155/31 32/147/34 40/5/32
f 42/137/44 51/124/51 32/147/34
f 32/147/34 51/124/51 40/5/32
f 51/124/51 50/50/49 40/5/32
f 33/36/36 35/141/35 43/58/45
f 45/134/48 53/125/52 35/141/35
f 35/141/35 53/125/52 43/58/45
f 53/125/52 52/57/53 43/58/45
f 36/51/38 37/79/37 46/52/43
f 47/131/40 55/129/54 37/79/37
f 54/82/55 46/52/43 55/129/54
f 37/79/37 55/129/54 46/52/43
f 48/99/47 56/100/56 38/98/39
f 56/100/56 55/81/54 38/98/39
f 55/81/54 47/80/40 38/98/39
f 49/128/50 57/120/57 39/138/41
f 53/33/52 45/34/48 57/120/57
f 57/120/57 45/34/48 39/138/41
f 45/34/48 41/29/42 39/138/41
f 42/48/44 46/83/43 51/49/51
f 46/83/43 54/84/55 51/49/51
f 54/84/55 58/85/58 51/49/51
f 52/123/53 59/67/59 43/132/45
f 56/68/56 48/69/47 59/67/59
f 44/70/46 43/132/45 48/69/47
f 59/67/59 48/69/47 43/132/45
f 49/31/50 50/135/49 57/32/57
f 51/60/51 58/122/58 50/135/49
f 50/135/49 58/122/58 57/32/57
f 58/122/58 60/119/60 57/32/57
f 52/97/53 53/126/52 59/96/59
f 53/126/52 57/121/57 59/96/59
f 57/121/57 60/95/60 59/96/59
f 54/63/55 55/64/54 58/61/58
f 56/65/56 59/66/59 55/64/54
f 55/64/54 59/66/59 58/61/58
f 59/66/59 60/62/60 58/61/58
